# xmcd
#
# Track frame offsets: 
#        150
#        18580
#        35667
#        53198
#        69743
#        90012
#        112222
#        130903
#        147066
#        158810
#        172564
#        188147
#        202783
#        221492
#        240255
#        263315
#
# Disc length: 3756 seconds
#
# Revision: 0
# Processed by: cddbd v1.5.2PL0 Copyright (c) Steve Scherf et al.
# Submitted via: ExactAudioCopy v0.99pb5
#
DISCID=ca0eaa10
DTITLE=D-Nice - Call Me D-Nice
DYEAR=2011
DGENRE=Rap
TTITLE0=Crumbs On The Table
TTITLE1=Call Me D-Nice
TTITLE2=Glory
TTITLE3=The 808 Is Coming
TTITLE4=Under Some Budda
TTITLE5=It's Over
TTITLE6=A Few Dollars More
TTITLE7=It's All About Me
TTITLE8=Pimp Of The Year
TTITLE9=And You Don't Stop
TTITLE10=Scott Made Me Funky
TTITLE11=D-Nice Rocks The House
TTITLE12=Crumbs On The Table (Stimulated Dummies Mix)
TTITLE13=Crumbs On The Table (Otis Mix)
TTITLE14=Call Me D-Nice (40th Street Remix)
TTITLE15=The 808 Is Coming (DJ Pooh Remix)
EXTD=
EXTT0=
EXTT1=
EXTT2=
EXTT3=
EXTT4=
EXTT5=
EXTT6=
EXTT7=
EXTT8=
EXTT9=
EXTT10=
EXTT11=
EXTT12=
EXTT13=
EXTT14=
EXTT15=
PLAYORDER=
